<svg id="Layer_1" data-name="Layer 1" xmlns="http://www.w3.org/2000/svg" viewBox="0 0 501.78 119.25"><defs><style>.cls-1,.cls-3{fill:#1d232b;}.cls-2{fill:none;stroke-width:5px;}.cls-2,.cls-3{stroke:#1d232b;stroke-miterlimit:10;}.cls-3{stroke-width:2px;}</style></defs><title>logo</title><path class="cls-1" d="M361.89,127.42a3,3,0,0,1-.36,1.3,1.2,1.2,0,0,1-1.15.72,4.51,4.51,0,0,1-1.95-.58,22.44,22.44,0,0,1-2.34-1.37c-.79-.52-1.53-1-2.23-1.58s-1.19-.91-1.47-1.15a97.51,97.51,0,0,1-8-7.71,49,49,0,0,1-5.54-7.2,29.74,29.74,0,0,1-3.28-7,24.44,24.44,0,0,1-1.08-7.2,4.93,4.93,0,0,1,1-3.28,3.57,3.57,0,0,1,2.88-1.19,4.18,4.18,0,0,1,2.3.65,6,6,0,0,1,1.73,1.69,14.36,14.36,0,0,1,1.26,2.24c.36.79.68,1.54,1,2.26a71.66,71.66,0,0,0,4.07,8.61q2.42,4.35,4.82,8t4.43,6.3q2,2.63,2.74,3.49.28.43.57.93a6.89,6.89,0,0,1,.4,1A3.49,3.49,0,0,1,361.89,127.42Zm28.73-32.76a2.19,2.19,0,0,1-.22,1c-.14.32-.29.64-.43,1-.1.19-.62,1-1.58,2.59l-3.53,5.65-4.54,7.27q-2.44,3.93-4.68,7.49c-1.49,2.38-2.78,4.48-3.89,6.3s-1.82,3.05-2.16,3.67-.7,1.38-1.4,2.7-1.52,2.92-2.48,4.79l-3.17,6.19q-1.73,3.39-3.57,6.91l-3.6,7q-1.75,3.42-3.27,6.3t-2.59,5c-.72,1.39-1.25,2.38-1.59,3a4.83,4.83,0,0,1-1.83,1.84,4.21,4.21,0,0,1-1.84.61,1.64,1.64,0,0,1-.72-.22,3,3,0,0,1-.83-.64,3.8,3.8,0,0,1-.68-1.19,5.26,5.26,0,0,1-.29-1.84,14.84,14.84,0,0,1,.18-2.09,15.93,15.93,0,0,1,.76-2.88,33.87,33.87,0,0,1,2.05-5c1-2,2.09-4.18,3.31-6.48s2.5-4.64,3.82-7,2.55-4.51,3.7-6.48,2.14-3.63,3-5,1.32-2.2,1.51-2.49.6-.93,1.37-2.08,1.74-2.58,2.91-4.29,2.49-3.61,3.93-5.72l4.42-6.48c1.52-2.21,3-4.37,4.47-6.48s2.79-4,4-5.73,2.21-3.12,3-4.24,1.32-1.82,1.51-2.06a20.79,20.79,0,0,1,1.62-1.69,2.32,2.32,0,0,1,1.55-.68,1.84,1.84,0,0,1,1.22.5A1.44,1.44,0,0,1,390.62,94.66Z" transform="translate(-22.5 -54.55)"/><path class="cls-2" d="M428.9,134.66a22.71,22.71,0,1,1,4.36-31.26" transform="translate(-22.5 -54.55)"/><line class="cls-2" x1="366.06" y1="32.39" x2="333.31" y2="43.45"/><line class="cls-2" x1="341.46" y1="62.23" x2="333.31" y2="43.45"/><path class="cls-2" d="M388.56,86.93c0-12.39-16.34-22.41-36.53-22.41" transform="translate(-22.5 -54.55)"/><path class="cls-2" d="M367.62,66.65c0,8.88-12,16.06-26.8,16.06" transform="translate(-22.5 -54.55)"/><ellipse class="cls-3" cx="314.34" cy="29.26" rx="3.06" ry="2.11"/><ellipse class="cls-3" cx="316.76" cy="8.66" rx="9.16" ry="7.66"/><path class="cls-2" d="M324,131.39a22.71,22.71,0,1,1,4.36-31.26" transform="translate(-22.5 -54.55)"/><path class="cls-1" d="M171,134a2.48,2.48,0,0,1-1.2,2.25,9.27,9.27,0,0,1-3.7,1,20.23,20.23,0,0,1-6.7-1.59q-4.2-1.6-9.65-4.21t-11.7-6q-6.26-3.35-12.8-6.89t-13.1-7.06q-6.56-3.5-12.45-6.39A8.54,8.54,0,0,1,98.05,104a2.22,2.22,0,0,1-.75-1.7,2.62,2.62,0,0,1,.4-1.3,9,9,0,0,1,3.9-2.29q2.81-1,6.3-1.91l7.3-1.84a62.93,62.93,0,0,0,7-2.16,19.4,19.4,0,0,0,5.2-2.84,4.94,4.94,0,0,0,2.05-4q0-3.79-4.15-6.7a41.58,41.58,0,0,0-10.9-5.09A111.85,111.85,0,0,0,99.1,70.46Q90.6,69,81.9,68T65.2,66.67q-8-.4-13.8-.41c-4.06,0-7.55,0-10.45.1s-5.33.15-7.3.25-3.51.22-4.65.35l-2.6.3A10.22,10.22,0,0,1,24,67a1.9,1.9,0,0,1-1.5-1.79,7.85,7.85,0,0,1,.7-2.41q.71-1.69,3.7-3.45a33.41,33.41,0,0,1,9.25-3.1A86.55,86.55,0,0,1,53.5,54.86c2.27,0,4.77,0,7.5.1s5.8.24,9.2.5q7.11.51,14.65,1.4t14.75,2.4A116.06,116.06,0,0,1,113.25,63a51.51,51.51,0,0,1,11.25,5.3,26.78,26.78,0,0,1,7.65,7.25A16.31,16.31,0,0,1,135,85a15.76,15.76,0,0,1-.5,3.8,9.18,9.18,0,0,1-2.8,4.2,30.94,30.94,0,0,1-7,4.65,86.26,86.26,0,0,1-13.1,5.15,292,292,0,0,1,29.7,9.61q5.59,2.19,10.95,4.69a74.48,74.48,0,0,1,9.5,5.25,32.89,32.89,0,0,1,6.7,5.7A9.12,9.12,0,0,1,171,134Zm-68.9-.59c0,1.86-.57,3.06-1.7,3.59a2.73,2.73,0,0,1-1.3.3q-2.1,0-3.95-2.39a27.54,27.54,0,0,1-3.45-6.36,79.43,79.43,0,0,1-3-9.09c-.93-3.44-1.78-7-2.55-10.71s-1.47-7.4-2.1-11.1-1.17-7.13-1.6-10.3-.78-5.91-1-8.25-.47-4-.6-5.1a11.59,11.59,0,0,1,.35-2.79,1.84,1.84,0,0,1,2-1.41,2.13,2.13,0,0,1,1.4.85,5.89,5.89,0,0,1,1,1.75,20.26,20.26,0,0,1,.6,2.15,19.28,19.28,0,0,1,.35,2.16c.2,1.26.72,3.38,1.55,6.34s1.83,6.37,3,10.2,2.4,7.87,3.7,12.1,2.5,8.25,3.6,12.06,2,7.13,2.7,10A30,30,0,0,1,102.1,133.37Z" transform="translate(-22.5 -54.55)"/><path class="cls-1" d="M232.4,129.26a1.82,1.82,0,0,1-1.2,1.61,15.26,15.26,0,0,1-3.9,1c-1.8.29-4.17.58-7.1.84l-10.8,1c-4,.41-7.57.7-10.7.91s-6,.29-8.5.29a70.35,70.35,0,0,1-8-.4,19.74,19.74,0,0,1-5.95-1.5,8.73,8.73,0,0,1-3.75-3,8.43,8.43,0,0,1-1.3-4.89,14,14,0,0,1,1.75-6.61,29.53,29.53,0,0,1,4.65-6.35,44.12,44.12,0,0,1,6.6-5.65,57.77,57.77,0,0,1,7.55-4.5,49.34,49.34,0,0,1,7.55-3,23.63,23.63,0,0,1,6.6-1.1,10.12,10.12,0,0,1,4.9,1,7.62,7.62,0,0,1,2.5,2,5.46,5.46,0,0,1,1.1,3.1,8.29,8.29,0,0,1-1.8,5,23.54,23.54,0,0,1-4.65,4.66,48.82,48.82,0,0,1-6.3,4.09,69.19,69.19,0,0,1-6.8,3.3,53.6,53.6,0,0,1-6.15,2.2,16.77,16.77,0,0,1-4.3.8,7.16,7.16,0,0,1-3.2-.64,1.9,1.9,0,0,1-.25-3.5,10.94,10.94,0,0,1,2.15-1q6.79-2.61,11.05-4.61a61.32,61.32,0,0,0,6.6-3.5,12.42,12.42,0,0,0,3.15-2.55,3.18,3.18,0,0,0,.8-1.75,2.24,2.24,0,0,0-.7-1.54,2.75,2.75,0,0,0-2.1-.75,10.85,10.85,0,0,0-3.45.84,40.77,40.77,0,0,0-5,2.35c-1.83,1-3.68,2.14-5.55,3.4a55.31,55.31,0,0,0-5.15,3.95,22.55,22.55,0,0,0-3.8,4.16,6.92,6.92,0,0,0-1.45,3.89,2.57,2.57,0,0,0,2.15,2.55A14.7,14.7,0,0,0,184,126c1.13,0,2.93-.11,5.4-.34l8-.75q4.31-.41,8.35-.75t6.35-.36c1.33,0,3.13,0,5.4.11a54.86,54.86,0,0,1,6.7.59,21,21,0,0,1,5.75,1.66C231.58,126.88,232.4,127.93,232.4,129.26Z" transform="translate(-22.5 -54.55)"/><path class="cls-1" d="M276.7,114.87a1.83,1.83,0,0,1-.9,1.59,7.31,7.31,0,0,1-2.2,1,14.9,14.9,0,0,1-2.75.45c-1,.06-1.85.09-2.65.09h-2.6c-1.47,0-3.27,0-5.4,0s-4.45-.09-6.95-.16-4.88-.14-7.15-.25-4.3-.21-6.1-.34a35.24,35.24,0,0,1-3.7-.41,4.45,4.45,0,0,1-2.25-1,2,2,0,0,1-.55-1.39,1.72,1.72,0,0,1,.95-1.11,11.27,11.27,0,0,1,3.45-.89q1.69-.21,5.75-.51t8.8-.5q4.76-.19,9.25-.35c3-.09,5.3-.15,6.9-.15.33,0,.93,0,1.8.1a17.15,17.15,0,0,1,2.75.46,6.6,6.6,0,0,1,2.5,1.14A2.75,2.75,0,0,1,276.7,114.87Z" transform="translate(-22.5 -54.55)"/><path class="cls-1" d="M458.78,135.48a5.75,5.75,0,0,1-.55,2.55,2,2,0,0,1-2.05,1.15,2.44,2.44,0,0,1-1.75-.9,9.65,9.65,0,0,1-1.45-2,18.87,18.87,0,0,1-1.3-2.8c-.66-1.73-1.65-4.31-2.95-7.75s-2.75-7.28-4.35-11.55-3.21-8.7-4.85-13.3-3.13-8.93-4.5-13-2.48-7.63-3.35-10.7a28.72,28.72,0,0,1-1.3-6.3,11.65,11.65,0,0,1,.2-2,7.53,7.53,0,0,1,.7-2,4.7,4.7,0,0,1,1.3-1.55,3.1,3.1,0,0,1,1.9-.6,3.59,3.59,0,0,1,1.95.6,7.87,7.87,0,0,1,1.7,1.45,11.08,11.08,0,0,1,1.3,1.8,8.71,8.71,0,0,1,.75,1.55q1.41,4.5,3.3,10.8T447.43,94q2.06,6.85,4.1,13.7t3.65,12.6q1.6,5.76,2.6,9.85A29.94,29.94,0,0,1,458.78,135.48Z" transform="translate(-22.5 -54.55)"/><path class="cls-1" d="M524.28,133.58a1.8,1.8,0,0,1-1.2,1.6,14.86,14.86,0,0,1-3.9,1c-1.8.3-4.16.59-7.1.85l-10.8,1c-4,.4-7.56.7-10.7.9s-6,.3-8.5.3a70.47,70.47,0,0,1-8-.4,20.44,20.44,0,0,1-5.95-1.5,8.73,8.73,0,0,1-3.75-3,8.54,8.54,0,0,1-1.3-4.9,14.06,14.06,0,0,1,1.75-6.6,29.28,29.28,0,0,1,4.65-6.35,45.14,45.14,0,0,1,6.6-5.65,58.44,58.44,0,0,1,7.55-4.5,49.75,49.75,0,0,1,7.55-3,23.63,23.63,0,0,1,6.6-1.1,10.22,10.22,0,0,1,4.9,1,7.65,7.65,0,0,1,2.5,2,5.39,5.39,0,0,1,1.1,3.1,8.29,8.29,0,0,1-1.8,5,23.24,23.24,0,0,1-4.65,4.65,47.83,47.83,0,0,1-6.3,4.1,68.11,68.11,0,0,1-6.8,3.3,53.6,53.6,0,0,1-6.15,2.2,16.69,16.69,0,0,1-4.3.8,7,7,0,0,1-3.2-.65,2,2,0,0,1-1.3-1.75,2,2,0,0,1,1.05-1.75,12.19,12.19,0,0,1,2.15-1q6.81-2.59,11-4.6a59.43,59.43,0,0,0,6.6-3.5,12.64,12.64,0,0,0,3.15-2.55,3.11,3.11,0,0,0,.8-1.75,2.26,2.26,0,0,0-.7-1.55,2.72,2.72,0,0,0-2.1-.75,10.93,10.93,0,0,0-3.45.85,41.47,41.47,0,0,0-5,2.35c-1.83,1-3.68,2.14-5.55,3.4a56.66,56.66,0,0,0-5.15,4,23.2,23.2,0,0,0-3.8,4.15,7,7,0,0,0-1.45,3.9,2.57,2.57,0,0,0,2.15,2.55,14.8,14.8,0,0,0,4.35.65c1.14,0,2.94-.11,5.4-.35l8-.75,8.35-.75q4-.35,6.35-.35c1.34,0,3.14,0,5.4.1a56.92,56.92,0,0,1,6.7.6,21.31,21.31,0,0,1,5.75,1.65C523.47,131.2,524.28,132.25,524.28,133.58Z" transform="translate(-22.5 -54.55)"/></svg>